<mxfile host="Electron" agent="Mozilla/5.0 (X11; Linux x86_64) AppleWebKit/537.36 (KHTML, like Gecko) draw.io/26.1.1 Chrome/132.0.6834.210 Electron/34.3.3 Safari/537.36" version="26.1.1">
  <diagram name="Strona-1" id="vhok5YCR3U3Ww--PpcSZ">
    <mxGraphModel dx="1464" dy="1391" grid="1" gridSize="10" guides="1" tooltips="1" connect="1" arrows="1" fold="1" page="1" pageScale="1" pageWidth="827" pageHeight="1169" math="0" shadow="0">
      <root>
        <mxCell id="0" />
        <mxCell id="1" parent="0" />
        <mxCell id="OBV7B1ktjhwSiXoPvo9B-2" value="QCOW2&lt;div&gt;base: RH9-template&lt;/div&gt;" style="image;sketch=0;aspect=fixed;html=1;points=[];align=center;fontSize=12;image=img/lib/mscae/Discs.svg;" vertex="1" parent="1">
          <mxGeometry x="70" y="120" width="50" height="42" as="geometry" />
        </mxCell>
        <mxCell id="OBV7B1ktjhwSiXoPvo9B-3" value="klon-1" style="image;aspect=fixed;html=1;points=[];align=center;fontSize=12;image=img/lib/azure2/compute/Disks_Snapshots.svg;" vertex="1" parent="1">
          <mxGeometry x="240" y="10" width="68" height="71" as="geometry" />
        </mxCell>
        <mxCell id="OBV7B1ktjhwSiXoPvo9B-4" value="klon-2" style="image;aspect=fixed;html=1;points=[];align=center;fontSize=12;image=img/lib/azure2/compute/Disks_Snapshots.svg;" vertex="1" parent="1">
          <mxGeometry x="288" y="105.5" width="68" height="71" as="geometry" />
        </mxCell>
        <mxCell id="OBV7B1ktjhwSiXoPvo9B-5" value="klon-3" style="image;aspect=fixed;html=1;points=[];align=center;fontSize=12;image=img/lib/azure2/compute/Disks_Snapshots.svg;" vertex="1" parent="1">
          <mxGeometry x="240" y="200" width="68" height="71" as="geometry" />
        </mxCell>
        <mxCell id="OBV7B1ktjhwSiXoPvo9B-6" style="edgeStyle=orthogonalEdgeStyle;rounded=0;orthogonalLoop=1;jettySize=auto;html=1;entryX=0.012;entryY=0.449;entryDx=0;entryDy=0;entryPerimeter=0;" edge="1" parent="1" source="OBV7B1ktjhwSiXoPvo9B-2" target="OBV7B1ktjhwSiXoPvo9B-3">
          <mxGeometry relative="1" as="geometry" />
        </mxCell>
        <mxCell id="OBV7B1ktjhwSiXoPvo9B-7" style="edgeStyle=orthogonalEdgeStyle;rounded=0;orthogonalLoop=1;jettySize=auto;html=1;entryX=0.117;entryY=0.508;entryDx=0;entryDy=0;entryPerimeter=0;" edge="1" parent="1" source="OBV7B1ktjhwSiXoPvo9B-2" target="OBV7B1ktjhwSiXoPvo9B-4">
          <mxGeometry relative="1" as="geometry" />
        </mxCell>
        <mxCell id="OBV7B1ktjhwSiXoPvo9B-8" style="edgeStyle=orthogonalEdgeStyle;rounded=0;orthogonalLoop=1;jettySize=auto;html=1;entryX=-0.006;entryY=0.523;entryDx=0;entryDy=0;entryPerimeter=0;" edge="1" parent="1" source="OBV7B1ktjhwSiXoPvo9B-2" target="OBV7B1ktjhwSiXoPvo9B-5">
          <mxGeometry relative="1" as="geometry" />
        </mxCell>
      </root>
    </mxGraphModel>
  </diagram>
</mxfile>
